<?xml version="1.0" encoding="utf-8"?>
<!-- Generator: Adobe Illustrator 19.0.0, SVG Export Plug-In . SVG Version: 6.00 Build 0)  -->
<svg version="1.1" id="Layer_1" xmlns="http://www.w3.org/2000/svg" xmlns:xlink="http://www.w3.org/1999/xlink" x="0px" y="0px"
	 viewBox="0 0 80 18" style="enable-background:new 0 0 80 18;" xml:space="preserve">
<style type="text/css">
	.st0{fill-rule:evenodd;clip-rule:evenodd;fill:#231F20;}
</style>
<path class="st0" d="M63.8,8.7c-1.1,0-1.5,0.6-1.5,1.4v2.8c0,0.8,0.4,1.4,1.5,1.4c1.1,0,1.5-0.6,1.5-1.4v-2.8
	C65.3,9.3,64.9,8.7,63.8,8.7z M79.6,16.9H76L73,11.8v5.1h-3.3V1.6L73,1v9.9L76,6.1h3.6l-3.3,5.3L79.6,16.9z M68.7,12.6
	c0,2.3-0.9,4.5-4.9,4.5c-3.9,0-4.9-2.2-4.9-4.5v-2.2c0-2.3,1-4.5,4.9-4.5c3.9,0,4.9,2.2,4.9,4.5V12.6z M58,12.6
	c0,2.3-0.9,4.5-4.9,4.5c-3.9,0-4.9-2.2-4.9-4.5v-2.2c0-2.3,1-4.5,4.9-4.5c3.9,0,4.9,2.2,4.9,4.5V12.6z M47.2,12.5
	c0,2.6-0.8,4.6-5.3,4.6c-1.6,0-2.6-0.1-4.4-0.4v-15L40.8,1v5.3c0.7-0.3,1.7-0.4,2.5-0.4c3.3,0,3.9,1.5,3.9,3.9V12.5z M36.4,12.5
	h-6.1v0.2c0,1.3,0.5,1.6,2,1.6c1.3,0,2.2-0.1,3.9-0.4v2.7c-1.7,0.3-2.5,0.4-4.2,0.4c-3.6,0-5-1.9-5-4.6v-2.2c0-2.4,1.1-4.3,4.7-4.3
	c3.7,0,4.7,1.9,4.7,4.3V12.5z M25.9,9c-1.7-0.3-2.2-0.4-3.1-0.4c-1.5,0-2,0.3-2,1.6v2.4c0,1.3,0.5,1.6,2,1.6c0.8,0,1.3-0.1,3.1-0.4
	v2.7c-1.5,0.3-2.5,0.4-3.3,0.4c-3.6,0-5-1.9-5-4.6v-2c0-2.7,1.4-4.6,5-4.6c0.8,0,1.8,0.1,3.3,0.4V9z M16.4,16.9h-2.8l-0.1-0.7
	c-1.3,0.7-2.4,0.8-3.2,0.8c-2,0-3.1-1.4-3.1-3.2c0-2.2,1.3-3,3.5-3h2.3v-0.5c0-1.1-0.1-1.5-1.9-1.5H8.4l0.3-2.8h3.1
	c3.8,0,4.7,1.2,4.7,4.3V16.9z M5,16.9H1.7V8.8H0V6.1h1.7V4.4c0-2.3,0.9-3.6,3.6-3.6h2.2v2.8H6.1C5.1,3.5,5,3.9,5,4.7l0,1.4h2.5
	L7.2,8.8H5V16.9z M53.1,8.7c-1.1,0-1.5,0.6-1.5,1.4v2.8c0,0.8,0.4,1.4,1.5,1.4c1.1,0,1.5-0.6,1.5-1.4v-2.8
	C54.6,9.3,54.2,8.7,53.1,8.7z M10.6,13.8c0,0.6,0.3,0.9,0.9,0.9c0.7,0,1.1-0.2,1.6-0.5V13h-1.5C10.9,13,10.6,13.2,10.6,13.8z
	 M31.6,8.4c-1.1,0-1.4,0.6-1.4,1.4v0.4H33V9.8C33,9,32.8,8.4,31.6,8.4z M42.5,8.7c-0.7,0-1.2,0.2-1.7,0.5v5.1c0.5,0,0.8,0,1.2,0
	c1.6,0,1.9-0.7,1.9-1.8v-2.5C43.9,9.3,43.6,8.7,42.5,8.7z"/>
</svg>
