<svg xmlns="http://www.w3.org/2000/svg" xmlns:xlink="http://www.w3.org/1999/xlink" version="1.1" x="0px" y="0px" viewBox="0 0 121.5 29.6" xml:space="preserve"><style type="text/css">
	.st0{fill:#36AEEA;}
	.st1{fill:#95A5AD;}
</style><path class="st0" d="M23.6 18.1c0.1 1.2 0.2 2.1 0.5 2.6 0.3 0.5 0.6 0.8 1.1 0.9 0.4 0.1 0.9 0 1.5-0.2 0.6-0.2 1.2-0.5 1.8-0.8 0 0 0 0 0 0.1 0 0.1 0 0.2 0 0.3 0 0.1 0 0.2 0 0.4 0 0.1 0 0.2 0 0.2 -1.3 0.7-2.5 1.2-3.6 1.3 -1.1 0.1-2 0-2.7-0.5 -0.7-0.5-1.3-1.2-1.7-2.2 -0.4-1-0.6-2.4-0.5-4 0-0.5 0-1.1 0.1-1.6 0-0.5 0.1-1 0.1-1.6 0.1-0.5 0.1-1.1 0.2-1.7 0.1-0.6 0.2-1.3 0.3-2 -0.2 0.2-0.4 0.5-0.8 1 -0.4 0.5-0.8 1-1.2 1.6 -0.5 0.6-0.9 1.2-1.5 1.8 -0.5 0.6-1 1.1-1.5 1.4 -0.5 0.4-0.9 0.6-1.3 0.6 -0.4 0-0.7-0.2-0.8-0.7 -0.6-1.6-1.1-3.2-1.5-4.6S11.6 7.9 11.3 7c-0.2 1.4-0.4 2.8-0.7 4.2 -0.2 1.4-0.5 2.8-0.7 4.2 0.3 0.1 0.6 0.2 0.8 0.3s0.4 0.3 0.5 0.4c0.1 0.2 0.2 0.3 0.2 0.6 0 0.2 0 0.5 0 0.9 -0.6-0.3-1.2-0.6-1.7-0.8 -0.2 0.7-0.4 1.4-0.6 2.1 -0.2 0.7-0.4 1.2-0.7 1.7 -0.5 0.9-1 1.6-1.6 1.9C6.2 22.9 5.6 23.1 5 23c-0.6 0-1.1-0.3-1.6-0.6C2.9 22 2.5 21.6 2.2 21c-0.3-0.5-0.5-1.1-0.6-1.8 -0.1-0.6 0-1.3 0.3-1.8 0.3-0.6 0.8-1.1 1.5-1.5s1.7-0.7 3-0.9c0.4-2 0.8-4.1 1.1-6.2C7.8 6.8 8 4.7 8.2 2.6c0-0.1 0.2-0.3 0.7-0.5C9.3 2 9.7 1.9 10.2 1.8c0.5-0.1 1-0.1 1.4-0.1 0.4 0 0.7 0.2 0.7 0.5 0.1 0.4 0.1 1 0.2 1.6 0.1 0.6 0.2 1.2 0.3 1.9 0.1 0.7 0.3 1.4 0.4 2.1 0.2 0.7 0.3 1.4 0.5 2 0.2 0.6 0.3 1.2 0.4 1.7s0.3 0.9 0.4 1.2c0 0.1 0.2 0 0.6-0.3s0.7-0.8 1.2-1.4c0.5-0.6 1-1.3 1.6-2.1 0.6-0.8 1.1-1.6 1.6-2.4 0.5-0.8 1-1.6 1.4-2.4 0.4-0.8 0.7-1.4 0.9-2 0.1-0.3 0.3-0.3 0.7-0.2 0.4 0.1 0.8 0.3 1.3 0.6 0.4 0.3 0.8 0.6 1.2 0.9 0.3 0.3 0.5 0.6 0.5 0.7 -0.4 1.8-0.7 3.6-1 5.3 -0.1 0.7-0.2 1.5-0.3 2.3 -0.1 0.8-0.2 1.6-0.3 2.3 -0.1 0.8-0.1 1.5-0.2 2.2C23.6 16.9 23.6 17.5 23.6 18.1zM6.1 16.2c-0.9 0-1.6 0.2-2.1 0.4 -0.6 0.2-1 0.5-1.3 0.9 -0.3 0.3-0.5 0.7-0.6 1.1 -0.1 0.4-0.1 0.8 0 1.1 0.1 0.3 0.2 0.6 0.4 0.9C2.9 20.8 3.1 21 3.4 21c0.4 0.1 0.7-0.1 1-0.5 0.3-0.4 0.6-0.9 0.8-1.4 0.2-0.6 0.4-1.1 0.6-1.7C6 16.9 6.1 16.5 6.1 16.2z"/><path class="st0" d="M37.5 10.5c-0.9-0.3-1.7-0.5-2.4-0.3 -0.7 0.1-1.3 0.4-1.8 0.8 -0.5 0.4-1 1-1.3 1.7 -0.3 0.7-0.6 1.4-0.8 2.1C31.1 15.5 31 16.3 31 17c0 0.8 0.1 1.4 0.2 2 0.2 0.6 0.4 1 0.7 1.4 0.3 0.3 0.7 0.5 1.2 0.4 0.7-0.1 1.2-0.4 1.8-0.9 0.5-0.5 0.9-1.1 1.2-1.8 0.3-0.7 0.5-1.4 0.6-2.1 0.1-0.7 0.1-1.3 0-1.8 -0.6 0-1.1-0.1-1.5-0.3 -0.3-0.2-0.6-0.4-0.7-0.7 -0.1-0.3-0.1-0.6-0.1-0.8 0.1-0.3 0.2-0.5 0.4-0.8 0.2-0.2 0.5-0.4 0.8-0.5 0.3-0.1 0.6-0.1 0.9 0.1 0.5 0.2 0.9 0.6 1.1 1.1s0.3 1.1 0.3 1.7c0 0.6-0.1 1.2-0.2 1.9 -0.1 0.6-0.3 1.2-0.4 1.6 -0.2 0.8-0.5 1.5-0.9 2.2 -0.4 0.7-0.8 1.3-1.4 1.8 -0.5 0.5-1.1 0.9-1.8 1.2S32 23 31.2 23c-0.8 0-1.4-0.4-1.9-0.9s-0.9-1.3-1.2-2.2c-0.3-0.9-0.4-1.9-0.4-3 0-1.1 0.2-2.2 0.5-3.2s0.8-2 1.4-2.9c0.6-0.9 1.4-1.6 2.3-2 0.9-0.4 1.7-0.7 2.6-0.6 0.9 0 1.6 0.3 2.2 1 0.2 0.2 0.3 0.4 0.5 0.7C37.3 9.9 37.4 10.2 37.5 10.5z"/><path class="st0" d="M43.3 19.9c0.2-0.1 0.5-0.3 0.7-0.8 0.2-0.5 0.5-1.1 0.7-1.9s0.5-1.6 0.7-2.5c0.2-0.9 0.4-1.8 0.6-2.6 0.2-0.9 0.4-1.6 0.5-2.3 0.2-0.7 0.3-1.3 0.4-1.7 0.7 0.2 1.2 0.4 1.6 0.6 0.4 0.2 0.7 0.3 1 0.4 0.2 0.1 0.4 0.3 0.5 0.4 0.1 0.1 0.1 0.2 0.1 0.3 -0.6 2.3-0.9 4.3-1 6 -0.1 1.7 0.1 3 0.5 3.9 0.4 0.9 1.1 1.4 2.1 1.5 1 0.1 2.3-0.3 4-1.2l0.3 0.6c-1.3 0.8-2.6 1.2-3.8 1.4 -1.2 0.2-2.3 0-3.2-0.5 -0.9-0.5-1.6-1.3-2.1-2.5 -0.5-1.1-0.7-2.6-0.7-4.4 -0.5 2.5-1.1 4.5-1.7 5.8s-1.3 2.1-2 2.4c-0.6 0.3-1.3 0.1-1.8-0.5 -0.6-0.6-1-1.6-1.3-2.9s-0.4-3-0.3-4.9c0.1-2 0.4-4.1 1.1-6.5 0.7 0.2 1.2 0.4 1.6 0.6 0.4 0.2 0.8 0.3 1 0.4 0.2 0.1 0.4 0.3 0.5 0.4 0.1 0.1 0.1 0.2 0.1 0.3 -0.3 1.3-0.6 2.6-0.8 3.9 -0.2 1.3-0.2 2.4-0.2 3.3 0 1 0.1 1.8 0.2 2.3C42.8 19.8 43 20 43.3 19.9z"/><path class="st0" d="M69.9 20.8c-1.4 0.8-2.6 1.3-3.6 1.6 -1 0.2-1.9 0.3-2.6 0.1 -0.7-0.2-1.3-0.5-1.8-0.9 -0.5-0.5-0.9-1-1.1-1.6 -0.3-0.6-0.5-1.3-0.6-2 -0.1-0.7-0.2-1.3-0.2-1.9 0-0.6 0-1.1 0-1.5 0-0.4 0-0.7 0-0.7 -0.6 0.9-1.1 2.1-1.6 3.6 -0.5 1.5-1.1 3.3-1.8 5.3 0 0.1-0.2 0.2-0.4 0.2s-0.5 0-0.8-0.1c-0.3-0.1-0.5-0.2-0.8-0.3 -0.2-0.2-0.4-0.3-0.4-0.6 -0.2-0.7-0.3-1.6-0.4-2.7 0-1.1 0-2.3 0.1-3.6s0.2-2.5 0.4-3.8 0.5-2.5 0.8-3.5c1.3 0.4 2.2 0.8 2.6 1 0.4 0.3 0.6 0.5 0.6 0.7 -0.2 0.4-0.3 0.9-0.5 1.6 -0.2 0.7-0.4 1.5-0.6 2.4 -0.2 0.9-0.3 1.8-0.5 2.7 -0.2 0.9-0.3 1.8-0.3 2.7 0.2-0.5 0.4-1.1 0.7-1.8 0.3-0.7 0.5-1.5 0.9-2.2 0.3-0.8 0.6-1.5 1-2.3 0.3-0.8 0.7-1.5 1-2.1 0.3-0.6 0.6-1.1 0.9-1.5C61.1 9.1 61.3 9 61.6 9c0.2 0 0.4 0 0.7 0.1 0.3 0.1 0.5 0.1 0.8 0.2 0.3 0.1 0.5 0.2 0.7 0.3 0.2 0.1 0.3 0.2 0.2 0.3 -0.6 2.3-0.9 4.3-1 6 -0.1 1.7 0.1 3 0.5 3.9 0.4 0.9 1.1 1.4 2.1 1.5s2.3-0.3 4-1.2L69.9 20.8z"/><path class="st1" d="M77.8 21.3C76 22.4 74.3 23 73 23c-1.4 0-2.5-0.3-3.3-1.1 -0.9-0.8-1.5-1.9-1.8-3.4 -0.3-1.5-0.4-3.2-0.1-5.1 0.1-0.7 0.2-1.3 0.3-2 0.1-0.7 0.3-1.4 0.5-2.1C68.3 9.1 68.1 9 67.9 9c-0.2 0-0.3-0.1-0.4-0.1 -0.2 0-0.3-0.1-0.4-0.1l0-0.8c0.1 0 0.3 0 0.5 0.1 0.2 0 0.3 0.1 0.5 0.1s0.4 0.1 0.7 0.1c0.3-0.9 0.5-1.8 0.8-2.6 0.3-0.8 0.5-1.6 0.7-2.2 0.7 0.2 1.2 0.4 1.6 0.7 0.4 0.2 0.7 0.4 0.9 0.6 0.2 0.2 0.3 0.4 0.4 0.6 0 0.2 0.1 0.3 0 0.4 -0.1 0.5-0.3 1-0.4 1.5 -0.1 0.5-0.3 1-0.4 1.4 0.5 0 1.1 0 1.6 0 0.5 0 1.1-0.1 1.6-0.2l0.1 1.3c-0.6 0.1-1.1 0.2-1.8 0.2 -0.6 0-1.2 0-1.8-0.1 -0.2 0.7-0.4 1.4-0.5 2.1 -0.2 0.7-0.3 1.4-0.4 2.2 -0.3 1.7-0.3 3.2-0.2 4.4 0.1 1.2 0.4 2.1 0.9 2.7 0.5 0.6 1.2 0.9 2.2 0.9 0.9 0 2.1-0.5 3.6-1.2L77.8 21.3z"/><path class="st1" d="M93.3 20.9c-1.3 0.8-2.4 1.3-3.5 1.5 -1 0.2-2 0.3-2.8 0.1s-1.5-0.6-2.1-1.1 -1-1.3-1.3-2.2c-0.3 0.6-0.6 1.2-1 1.7 -0.4 0.5-0.8 0.9-1.2 1.3 -0.4 0.3-0.9 0.6-1.4 0.8C79.5 23 79 23 78.4 23c-0.7-0.1-1.2-0.4-1.7-1 -0.4-0.6-0.8-1.4-1-2.3 -0.2-0.9-0.3-1.9-0.2-3 0.1-1.1 0.2-2.2 0.6-3.2 0.3-1 0.8-2 1.3-2.8 0.6-0.9 1.3-1.5 2.1-1.9 0.8-0.4 1.5-0.6 2.3-0.5 0.8 0 1.4 0.4 1.9 1.1 0 0 0 0.1 0 0.1 0 0 0 0 0 0.1C83.9 9.2 84 9 84 8.9c0.1-0.2 0.1-0.4 0.2-0.6 0.7 0.2 1.2 0.4 1.6 0.6 0.4 0.2 0.7 0.3 1 0.4s0.4 0.3 0.5 0.4c0.1 0.1 0.1 0.2 0.1 0.3 -0.6 2.3-0.9 4.3-1 6 -0.1 1.7 0.1 3 0.5 3.9 0.4 0.9 1.1 1.4 2.1 1.5 1 0.1 2.3-0.3 4-1.2L93.3 20.9zM81.8 10.6c-0.4 0.2-0.8 0.5-1.2 1 -0.3 0.5-0.6 1-0.9 1.7 -0.2 0.6-0.4 1.3-0.5 2 -0.1 0.7-0.2 1.4-0.2 2 0 0.6 0.1 1.2 0.2 1.6 0.1 0.5 0.3 0.7 0.6 0.9 0.4 0.2 0.8 0.2 1.1 0 0.3-0.2 0.7-0.5 0.9-0.9 0.3-0.4 0.5-1 0.7-1.6 0.2-0.6 0.3-1.3 0.4-1.9 0.1-0.7 0.2-1.3 0.2-1.9 0-0.6 0-1.2-0.1-1.7 -0.1-0.5-0.3-0.8-0.5-1C82.4 10.5 82.2 10.5 81.8 10.6z"/><path class="st1" d="M101.3 21.3c-1.5 0.9-2.8 1.4-4 1.6 -1.2 0.2-2.2 0.1-3-0.2s-1.5-1-2.1-1.8c-0.5-0.9-0.9-1.9-1.1-3.1 -0.2-1.2-0.2-2.6 0-4.1 0.2-1.5 0.5-3.1 1-4.8 0.7 0.2 1.2 0.4 1.6 0.6 0.4 0.2 0.8 0.3 1 0.4 0.2 0.1 0.4 0.2 0.5 0.4 0.1 0.1 0.1 0.2 0.1 0.3 -0.5 2.3-0.9 4.3-1 6 -0.1 1.7 0.1 3 0.5 4 0.4 0.9 1.2 1.4 2.2 1.5 1 0.1 2.3-0.3 4-1.2L101.3 21.3zM96.1 8c0.1-0.4 0.2-0.7 0.3-1.1 0.1-0.4 0.2-0.7 0.3-1.1 0.1-0.4 0.2-0.7 0.3-1 0-0.1 0-0.2-0.1-0.4 -0.1-0.2-0.2-0.3-0.4-0.6 -0.2-0.2-0.5-0.4-0.9-0.6 -0.4-0.2-0.9-0.4-1.6-0.7 -0.4 1-0.7 1.9-0.8 2.8 0 0.4 0 0.7 0 1.1s0.2 0.7 0.3 1.1c0.2 0.3 0.4 0.6 0.8 0.9 0.3 0.3 0.8 0.5 1.3 0.6C95.9 8.7 96 8.4 96.1 8z"/><path class="st1" d="M115.1 20.8c-1.4 0.8-2.6 1.3-3.6 1.6 -1 0.2-1.9 0.3-2.6 0.1 -0.7-0.2-1.3-0.5-1.8-0.9 -0.5-0.5-0.9-1-1.1-1.6 -0.3-0.6-0.5-1.3-0.6-2 -0.1-0.7-0.2-1.3-0.2-1.9 0-0.6 0-1.1 0-1.5 0-0.4 0-0.7 0-0.7 -0.6 0.9-1.1 2.1-1.6 3.6 -0.5 1.5-1.1 3.3-1.8 5.3 0 0.1-0.2 0.2-0.4 0.2s-0.5 0-0.8-0.1c-0.3-0.1-0.5-0.2-0.8-0.3 -0.2-0.2-0.4-0.3-0.4-0.6 -0.2-0.7-0.3-1.6-0.4-2.7 0-1.1 0-2.3 0.1-3.6s0.2-2.5 0.4-3.8 0.5-2.5 0.8-3.5c1.3 0.4 2.2 0.8 2.6 1 0.4 0.3 0.6 0.5 0.6 0.7 -0.2 0.4-0.3 0.9-0.5 1.6 -0.2 0.7-0.4 1.5-0.6 2.4 -0.2 0.9-0.3 1.8-0.5 2.7 -0.2 0.9-0.3 1.8-0.3 2.7 0.2-0.5 0.4-1.1 0.7-1.8 0.3-0.7 0.5-1.5 0.9-2.2 0.3-0.8 0.6-1.5 1-2.3 0.3-0.8 0.7-1.5 1-2.1 0.3-0.6 0.6-1.1 0.9-1.5 0.3-0.4 0.6-0.6 0.8-0.6 0.2 0 0.4 0 0.7 0.1 0.3 0.1 0.5 0.1 0.8 0.2 0.3 0.1 0.5 0.2 0.7 0.3 0.2 0.1 0.3 0.2 0.2 0.3 -0.6 2.3-0.9 4.3-1 6 -0.1 1.7 0.1 3 0.5 3.9 0.4 0.9 1.1 1.4 2.1 1.5s2.3-0.3 4-1.2L115.1 20.8z"/><path class="st1" d="M112.5 15.9c-0.1-0.4-0.1-1-0.1-1.5 0-0.6 0-1.2 0-1.8 0-0.6 0.1-1.2 0.2-1.7 0.1-0.6 0.3-1 0.6-1.5 0.2-0.4 0.6-0.7 1-1 0.4-0.2 0.9-0.3 1.5-0.2 0.3 0 0.6 0.1 1 0.2 0.3 0.1 0.7 0.3 0.9 0.4 0.3 0.2 0.5 0.4 0.8 0.7 0.2 0.3 0.4 0.6 0.4 0.9 0.1 0.6 0.1 1.2 0.1 1.8 0 0.6-0.1 1.3-0.3 1.9 -0.2 0.6-0.3 1.2-0.6 1.8 -0.2 0.6-0.4 1.1-0.6 1.6 -0.2 0.5-0.4 0.8-0.5 1.1 -0.1 0.3-0.2 0.4-0.2 0.4 0.2 1.8 0.3 3.4 0.1 4.7 -0.2 1.3-0.5 2.3-1.1 2.9 -0.6 0.6-1.4 0.8-2.5 0.6s-2.4-0.9-4-2l0.6-0.6c1 0.7 1.8 1.1 2.3 1.1 0.6 0.1 1-0.1 1.2-0.4 0.2-0.4 0.4-0.9 0.4-1.6s-0.1-1.5-0.2-2.4c-0.1-0.9-0.3-1.8-0.5-2.8C112.7 17.7 112.6 16.8 112.5 15.9zM116.3 17.9c0.5-1.2 0.8-2.2 1.1-3s0.4-1.6 0.4-2.2 0-1 0-1.4c-0.1-0.3-0.2-0.5-0.4-0.5 -0.2-0.1-0.4 0-0.6 0.3 -0.2 0.3-0.4 0.7-0.5 1.3s-0.2 1.4-0.2 2.3C116.1 15.6 116.2 16.7 116.3 17.9z"/></svg>