<?xml version="1.0" encoding="utf-8"?>
<!-- Generator: Avocode 2.5.4 - http://avocode.com -->
<svg height="10" width="12" xmlns:xlink="http://www.w3.org/1999/xlink" xmlns="http://www.w3.org/2000/svg" viewBox="0 0 12 10">
    <path fill="#ffffff" fill-rule="evenodd" d="M 11 6 C 11 6 1 6 1 6 C 0.45 6 0 5.55 0 5 C 0 4.45 0.45 4 1 4 C 1 4 11 4 11 4 C 11.55 4 12 4.45 12 5 C 12 5.55 11.55 6 11 6 Z M 11 2 C 11 2 1 2 1 2 C 0.45 2 0 1.55 0 1 C 0 0.45 0.45 0 1 0 C 1 0 11 0 11 0 C 11.55 0 12 0.45 12 1 C 12 1.55 11.55 2 11 2 Z M 1 8 C 1 8 11 8 11 8 C 11.55 8 12 8.45 12 9 C 12 9.55 11.55 10 11 10 C 11 10 1 10 1 10 C 0.45 10 0 9.55 0 9 C 0 8.45 0.45 8 1 8 Z" />
</svg>