<?xml version="1.0" encoding="utf-8"?>
<!-- Generator: Adobe Illustrator 19.0.0, SVG Export Plug-In . SVG Version: 6.00 Build 0)  -->
<svg version="1.1" id="Layer_1" xmlns="http://www.w3.org/2000/svg" xmlns:xlink="http://www.w3.org/1999/xlink" x="0px" y="0px"
	 viewBox="0 0 70 26" style="enable-background:new 0 0 70 26;" xml:space="preserve">
<style type="text/css">
	.st0{fill-rule:evenodd;clip-rule:evenodd;fill:#231F20;}
</style>
<path class="st0" d="M8.9,1.4C4.4,6.7,0,13.4,0,18.4c0,1.9,0.6,3.5,2,4.8c2,1.8,4.3,2.4,6.5,2.4c3.3,0,6.5-1.3,9.1-2.4
	c4.3-1.7,51.6-22.6,51.6-22.6c0.5-0.2,0.4-0.5-0.2-0.4c-0.2,0.1-51.5,14.2-51.5,14.2c-1,0.3-2,0.4-3,0.4c-3.9,0-7.4-2.2-7.4-6.9
	C7.1,6.2,7.6,4,8.9,1.4"/>
</svg>
