<?xml version="1.0" encoding="utf-8"?>
<!-- Generator: Adobe Illustrator 19.0.0, SVG Export Plug-In . SVG Version: 6.00 Build 0)  -->
<svg version="1.1" id="Layer_1" xmlns="http://www.w3.org/2000/svg" xmlns:xlink="http://www.w3.org/1999/xlink" x="0px" y="0px"
	 viewBox="0 0 17.9 11.1" style="enable-background:new 0 0 17.9 11.1;" xml:space="preserve">
<style type="text/css">
	.st0{display:none;}
	.st1{fill:#FFFFFF;}
</style>
<path id="XMLID_109_" class="st0" d="M-8.2-0.2h1.5v-2.5h-1.8v0C-11.4-2.6-12-1-12,0.8h0v2h-1.5v2.5h1.5v7.9h3V5.2h2.2l0.4-2.5h-2.7
	V0.9C-9.1,0.4-8.7-0.2-8.2-0.2z"/>
<path id="XMLID_2_" class="st0" d="M-22.4,0.3c-0.3,0.1-1.1,0.4-1.8,0.5c0.5-0.3,1.2-1.1,1.4-1.8c-0.5,0.3-1.5,0.7-2,0.7
	c0,0,0,0,0,0c-0.6-0.6-1.4-1-2.3-1c-1.8,0-3.2,1.5-3.2,3.3c0,0.2,0,0.5,0.1,0.7h0c-2.4-0.1-5.1-1.3-6.7-3.4c-1,1.7-0.1,3.6,1,4.3
	c-0.4,0-1.1,0-1.4-0.4c0,1.1,0.5,2.6,2.5,3.2c-0.4,0.2-1.1,0.1-1.4,0.1c0.1,1,1.4,2.2,2.9,2.2c-0.5,0.6-2.5,1.7-4.7,1.4
	c1.5,0.9,3.2,1.4,5.1,1.4c5.2,0,9.3-4.3,9.1-9.5c0,0,0,0,0,0c0,0,0,0,0,0c0,0,0,0,0,0C-23.5,1.7-22.9,1.1-22.4,0.3z"/>
<g id="i1hmMj.tif">
	<g id="XMLID_1_">
		<path id="XMLID_12_" class="st1" d="M14,10.7c-0.1,0-0.1,0-0.2,0c-0.5,0-0.9-0.7-1.3-1c-0.3-0.3-0.6-0.8-0.9-1.1
			c-0.2-0.2-0.3-0.5-0.5-0.7c-0.4-0.3-0.8-0.2-0.9,0.3c0,0.2-0.1,0.3-0.1,0.5c0,0.2,0,0.5-0.1,0.7c-0.1,0.3-0.2,0.4-0.5,0.5
			C9.4,10,9.2,10,9,10c-0.3,0-0.6,0-0.9-0.1C7.5,9.9,7,9.8,6.5,9.6c-1-0.4-1.7-1-2.4-1.7C3.3,7,2.7,6,2.1,5C1.5,4.1,1.2,3.2,0.7,2.2
			C0.5,1.8,0.4,1.4,0.4,0.9c0-0.1,0-0.1,0-0.2c0-0.1,0.3-0.2,0.5-0.2c0.2,0,0.3,0,0.5,0c0.5,0,1,0,1.5,0c0.3,0,0.6,0.1,0.7,0.5
			c0.2,0.3,0.3,0.6,0.4,1c0.4,0.9,1,1.8,1.6,2.6c0.1,0.1,0.2,0.3,0.4,0.3c0.2,0.1,0.4,0,0.5-0.2c0.1-0.1,0.1-0.2,0.1-0.4
			c0.1-0.3,0.1-0.7,0.1-1c0-0.5,0-1.1-0.1-1.6C6.7,1.3,6.5,1,6.1,0.9C6,0.9,5.9,0.8,5.8,0.8c-0.1,0-0.1-0.1,0-0.1
			C5.8,0.5,6,0.4,6.2,0.3c0.1-0.1,1.1,0.1,2,0.2c0.7,0.1,1.2,0,1.3,0C9.8,0.6,10,0.6,10.1,1c0,0.1,0,0.2,0.1,0.3
			c0,0.6-0.1,1.1-0.1,1.6c0,0.4-0.1,0.8,0,1.2c0,0.3,0.1,0.5,0.3,0.7c0.1,0,0.1,0.1,0.2,0c0.2-0.1,0.4-0.2,0.5-0.4
			c0.7-0.9,1.3-1.9,1.8-3C12.9,1.2,13,1,13.1,0.8c0.1-0.1,0.2-0.2,0.4-0.2c0.2-0.1,0.4-0.1,0.6-0.1c0.3,0,0.7,0,1,0
			c0.4,0,0.9,0,1.3,0c0.2,0,0.3,0,0.5,0.1c0.1,0.1,0.2,0.2,0.2,0.3c0,0.1,0,0.2-0.1,0.3c-0.1,0.5-0.4,1-0.7,1.4
			c-0.5,0.7-1,1.3-1.5,2c-0.2,0.2-0.4,0.5-0.5,0.8c-0.1,0.3,0,0.5,0.1,0.7c0.1,0.1,0.2,0.3,0.4,0.4c0.6,0.6,1.3,1.1,1.8,1.8
			c0.2,0.3,0.7,0.6,0.7,1c0,0,0,0.1,0,0.1c0,0.3-0.4,0.4-0.6,0.5C16.6,10,14.1,10.7,14,10.7z"/>
	</g>
</g>
</svg>
