<?xml version="1.0" encoding="utf-8"?>
<!-- Generator: Adobe Illustrator 19.0.0, SVG Export Plug-In . SVG Version: 6.00 Build 0)  -->
<svg version="1.1" id="Layer_1" xmlns="http://www.w3.org/2000/svg" xmlns:xlink="http://www.w3.org/1999/xlink" x="0px" y="0px"
	 viewBox="-296 389.8 17.9 14.2" style="enable-background:new -296 389.8 17.9 14.2;" xml:space="preserve">
<style type="text/css">
	.st0{display:none;}
	.st1{fill:#FFFFFF;}
	.st2{display:inline;}
</style>
<path id="XMLID_109_" class="st0" d="M-304.2,389.6h1.5v-2.5h-1.8l0,0c-2.9,0.1-3.5,1.7-3.5,3.5l0,0v2h-1.5v2.5h1.5v7.9h3v-8h2.2
	l0.4-2.5h-2.7v-1.8C-305.1,390.2-304.7,389.6-304.2,389.6z"/>
<path id="XMLID_2_" class="st1" d="M-279.3,391.9c-0.3,0.1-1.1,0.4-1.8,0.5c0.5-0.3,1.2-1.1,1.4-1.8c-0.5,0.3-1.5,0.7-2,0.7l0,0
	c-0.6-0.6-1.4-1-2.3-1c-1.8,0-3.2,1.5-3.2,3.3c0,0.2,0,0.5,0.1,0.7l0,0c-2.6,0-5.2-1.3-6.8-3.4c-1,1.7-0.1,3.6,1,4.3
	c-0.4,0-1.1,0-1.4-0.4c0,1.1,0.5,2.6,2.5,3.2c-0.4,0.3-1.1,0.2-1.4,0.2c0.1,1,1.4,2.2,2.9,2.2c-0.5,0.6-2.5,1.7-4.7,1.4
	c1.5,0.9,3.2,1.4,5.1,1.4c5.2,0,9.3-4.3,9.1-9.5l0,0l0,0l0,0C-280.3,393.2-279.7,392.6-279.3,391.9z"/>
<g id="i1hmMj.tif" class="st0">
	<g id="XMLID_1_" class="st2">
		<path id="XMLID_12_" class="st1" d="M-282,400.5c-0.1,0-0.1,0-0.2,0c-0.5,0-0.9-0.7-1.3-1c-0.3-0.3-0.6-0.8-0.9-1.1
			c-0.2-0.2-0.3-0.5-0.5-0.7c-0.4-0.3-0.8-0.2-0.9,0.3c0,0.2-0.1,0.3-0.1,0.5c0,0.2,0,0.5-0.1,0.7c-0.1,0.3-0.2,0.4-0.5,0.5
			c-0.1,0.1-0.3,0.1-0.5,0.1c-0.3,0-0.6,0-0.9-0.1c-0.6,0-1.1-0.1-1.6-0.3c-1-0.4-1.7-1-2.4-1.7c-0.8-0.9-1.4-1.9-2-2.9
			c-0.6-0.9-0.9-1.8-1.4-2.8c-0.2-0.4-0.3-0.8-0.3-1.3c0-0.1,0-0.1,0-0.2c0-0.1,0.3-0.2,0.5-0.2c0.2,0,0.3,0,0.5,0c0.5,0,1,0,1.5,0
			c0.3,0,0.6,0.1,0.7,0.5c0.2,0.3,0.3,0.6,0.4,1c0.4,0.9,1,1.8,1.6,2.6c0.1,0.1,0.2,0.3,0.4,0.3c0.2,0.1,0.4,0,0.5-0.2
			c0.1-0.1,0.1-0.2,0.1-0.4c0.1-0.3,0.1-0.7,0.1-1c0-0.5,0-1.1-0.1-1.6c0.1-0.4-0.1-0.7-0.5-0.8c-0.1,0-0.2-0.1-0.3-0.1
			c-0.1,0-0.1-0.1,0-0.1c0-0.2,0.2-0.3,0.4-0.4c0.1-0.1,1.1,0.1,2,0.2c0.7,0.1,1.2,0,1.3,0c0.3,0.1,0.5,0.1,0.6,0.5
			c0,0.1,0,0.2,0.1,0.3c0,0.6-0.1,1.1-0.1,1.6c0,0.4-0.1,0.8,0,1.2c0,0.3,0.1,0.5,0.3,0.7c0.1,0,0.1,0.1,0.2,0
			c0.2-0.1,0.4-0.2,0.5-0.4c0.7-0.9,1.3-1.9,1.8-3c0-0.2,0.1-0.4,0.2-0.6c0.1-0.1,0.2-0.2,0.4-0.2c0.2-0.1,0.4-0.1,0.6-0.1
			c0.3,0,0.7,0,1,0c0.4,0,0.9,0,1.3,0c0.2,0,0.3,0,0.5,0.1c0.1,0.1,0.2,0.2,0.2,0.3s0,0.2-0.1,0.3c-0.1,0.5-0.4,1-0.7,1.4
			c-0.5,0.7-1,1.3-1.5,2c-0.2,0.2-0.4,0.5-0.5,0.8c-0.1,0.3,0,0.5,0.1,0.7c0.1,0.1,0.2,0.3,0.4,0.4c0.6,0.6,1.3,1.1,1.8,1.8
			c0.2,0.3,0.7,0.6,0.7,1v0.1c0,0.3-0.4,0.4-0.6,0.5C-279.4,399.8-281.9,400.5-282,400.5z"/>
	</g>
</g>
</svg>
