<?xml version="1.0" encoding="utf-8"?>
<!-- Generator: Adobe Illustrator 19.0.0, SVG Export Plug-In . SVG Version: 6.00 Build 0)  -->
<svg version="1.1" id="Layer_1" xmlns="http://www.w3.org/2000/svg" xmlns:xlink="http://www.w3.org/1999/xlink" x="0px" y="0px"
	 viewBox="0 0 8.9 17.7" style="enable-background:new 0 0 8.9 17.7;" xml:space="preserve">
<style type="text/css">
	.st0{fill:#FFFFFF;}
	.st1{display:none;}
	.st2{display:inline;}
</style>
<path id="XMLID_109_" class="st0" d="M6.2,3.5h1.5V1H5.9v0C3,1.1,2.4,2.7,2.3,4.5h0v2H0.8v2.5h1.5v7.9h3V8.9h2.2l0.4-2.5H5.3V4.6
	C5.3,4.1,5.6,3.5,6.2,3.5z"/>
<path id="XMLID_2_" class="st1" d="M12.2,2.1c-0.3,0.1-1.1,0.4-1.8,0.5c0.5-0.3,1.2-1.1,1.4-1.8c-0.5,0.3-1.5,0.7-2,0.7c0,0,0,0,0,0
	c-0.6-0.6-1.4-1-2.3-1C5.6,0.5,4.1,2,4.1,3.8c0,0.2,0,0.5,0.1,0.7h0C1.8,4.5-0.9,3.2-2.5,1.1c-1,1.7-0.1,3.6,1,4.3
	c-0.4,0-1.1,0-1.4-0.4c0,1.1,0.5,2.6,2.5,3.2c-0.4,0.2-1.1,0.1-1.4,0.1c0.1,1,1.4,2.2,2.9,2.2c-0.5,0.6-2.5,1.7-4.7,1.4
	c1.5,0.9,3.2,1.4,5.1,1.4c5.2,0,9.3-4.3,9.1-9.5c0,0,0,0,0,0c0,0,0,0,0,0c0,0,0,0,0,0C11.1,3.4,11.7,2.8,12.2,2.1z"/>
<g id="i1hmMj.tif" class="st1">
	<g id="XMLID_1_" class="st2">
		<path id="XMLID_12_" class="st0" d="M9.5,10.7c-0.1,0-0.1,0-0.2,0c-0.5,0-0.9-0.7-1.3-1C7.7,9.4,7.4,8.9,7.2,8.6
			C7,8.4,6.8,8.1,6.6,7.9C6.2,7.6,5.8,7.7,5.7,8.2c0,0.2-0.1,0.3-0.1,0.5c0,0.2,0,0.5-0.1,0.7C5.5,9.7,5.3,9.8,5.1,9.9
			C4.9,10,4.7,10,4.4,10c-0.3,0-0.6,0-0.9-0.1C3,9.9,2.4,9.8,1.9,9.6c-1-0.4-1.7-1-2.4-1.7C-1.2,7-1.9,6-2.5,5
			C-3,4.1-3.4,3.2-3.8,2.2C-4,1.8-4.1,1.4-4.1,0.9c0-0.1,0-0.1,0-0.2c0-0.1,0.3-0.2,0.5-0.2c0.2,0,0.3,0,0.5,0c0.5,0,1,0,1.5,0
			c0.3,0,0.6,0.1,0.7,0.5c0.2,0.3,0.3,0.6,0.4,1c0.4,0.9,1,1.8,1.6,2.6c0.1,0.1,0.2,0.3,0.4,0.3c0.2,0.1,0.4,0,0.5-0.2
			c0.1-0.1,0.1-0.2,0.1-0.4c0.1-0.3,0.1-0.7,0.1-1c0-0.5,0-1.1-0.1-1.6C2.1,1.3,1.9,1,1.5,0.9c-0.1,0-0.2-0.1-0.3-0.1
			c-0.1,0-0.1-0.1,0-0.1c0.1-0.2,0.2-0.3,0.4-0.4c0.1-0.1,1.1,0.1,2,0.2c0.7,0.1,1.2,0,1.3,0C5.2,0.6,5.5,0.6,5.5,1
			c0,0.1,0,0.2,0.1,0.3c0,0.6-0.1,1.1-0.1,1.6c0,0.4-0.1,0.8,0,1.2c0,0.3,0.1,0.5,0.3,0.7c0.1,0,0.1,0.1,0.2,0
			c0.2-0.1,0.4-0.2,0.5-0.4c0.7-0.9,1.3-1.9,1.8-3C8.3,1.2,8.4,1,8.6,0.8c0.1-0.1,0.2-0.2,0.4-0.2c0.2-0.1,0.4-0.1,0.6-0.1
			c0.3,0,0.7,0,1,0c0.4,0,0.9,0,1.3,0c0.2,0,0.3,0,0.5,0.1c0.1,0.1,0.2,0.2,0.2,0.3c0,0.1,0,0.2-0.1,0.3c-0.1,0.5-0.4,1-0.7,1.4
			c-0.5,0.7-1,1.3-1.5,2C10.2,4.8,10,5.1,9.9,5.4c-0.1,0.3,0,0.5,0.1,0.7c0.1,0.1,0.2,0.3,0.4,0.4c0.6,0.6,1.3,1.1,1.8,1.8
			c0.2,0.3,0.7,0.6,0.7,1c0,0,0,0.1,0,0.1c0,0.3-0.4,0.4-0.6,0.5C12,10,9.6,10.7,9.5,10.7z"/>
	</g>
</g>
</svg>
