<?xml version="1.0" encoding="utf-8"?>
<!-- Generator: Avocode 2.6.0 - http://avocode.com -->
<svg height="7" width="81" xmlns:xlink="http://www.w3.org/1999/xlink" xmlns="http://www.w3.org/2000/svg" viewBox="0 0 81 7">
    <path fill="#191919" opacity="0.2" fill-rule="evenodd" d="M 70.54 7 C 70.54 7 65.53 1.84 65.53 1.84 C 65.53 1.84 60.53 7 60.53 7 C 60.53 7 55.52 1.84 55.52 1.84 C 55.52 1.84 50.51 7 50.51 7 C 50.51 7 45.51 1.84 45.51 1.84 C 45.51 1.84 40.5 7 40.5 7 C 40.5 7 35.49 1.84 35.49 1.84 C 35.49 1.84 30.49 7 30.49 7 C 30.49 7 25.48 1.84 25.48 1.84 C 25.48 1.84 20.47 7 20.47 7 C 20.47 7 15.47 1.84 15.47 1.84 C 15.47 1.84 10.46 7 10.46 7 C 10.46 7 5.45 1.84 5.45 1.84 C 5.45 1.84 0.89 6.54 0.89 6.54 C 0.89 6.54 0 5.62 0 5.62 C 0 5.62 5.45 0 5.45 0 C 5.45 0 10.46 5.16 10.46 5.16 C 10.46 5.16 15.47 0 15.47 0 C 15.47 0 20.47 5.16 20.47 5.16 C 20.47 5.16 25.48 0 25.48 0 C 25.48 0 30.49 5.16 30.49 5.16 C 30.49 5.16 35.49 0 35.49 0 C 35.49 0 40.5 5.16 40.5 5.16 C 40.5 5.16 45.51 0 45.51 0 C 45.51 0 50.51 5.16 50.51 5.16 C 50.51 5.16 55.52 0 55.52 0 C 55.52 0 60.53 5.16 60.53 5.16 C 60.53 5.16 65.53 0 65.53 0 C 65.53 0 70.54 5.16 70.54 5.16 C 70.54 5.16 75.55 0 75.55 0 C 75.55 0 81 5.62 81 5.62 C 81 5.62 80.11 6.54 80.11 6.54 C 80.11 6.54 75.55 1.84 75.55 1.84 C 75.55 1.84 70.54 7 70.54 7 Z" />
</svg>