<?xml version="1.0" encoding="utf-8"?>
<!-- Generator: Avocode 2.6.0 - http://avocode.com -->
<svg height="38" width="38" xmlns:xlink="http://www.w3.org/1999/xlink" xmlns="http://www.w3.org/2000/svg" viewBox="0 0 38 38">
    <path fill="#404041" fill-rule="evenodd" d="M 19 38 C 8.51 38 0 29.49 0 19 C 0 8.51 8.51 0 19 0 C 29.49 0 38 8.51 38 19 C 38 29.49 29.49 38 19 38 Z M 19 2.37 C 9.82 2.37 2.38 9.82 2.38 19 C 2.38 28.18 9.82 35.62 19 35.62 C 28.18 35.62 35.63 28.18 35.63 19 C 35.63 9.82 28.18 2.37 19 2.37 Z M 19.55 26.64 C 19.49 26.82 19.4 26.99 19.25 27.12 C 18.78 27.57 18.02 27.55 17.58 27.07 C 17.58 27.07 12.14 22.06 12.14 22.06 C 11.7 21.58 11.72 20.83 12.2 20.38 C 12.68 19.93 13.43 19.96 13.88 20.44 C 13.88 20.44 18.13 24.36 18.13 24.36 C 18.13 24.36 25.72 11.2 25.72 11.2 C 26.05 10.63 26.78 10.44 27.34 10.77 C 27.91 11.09 28.11 11.82 27.78 12.39 C 27.78 12.39 19.55 26.64 19.55 26.64 Z" />
</svg>