<?xml version="1.0" encoding="utf-8"?>
<!-- Generator: Avocode 2.6.0 - http://avocode.com -->
<svg height="38" width="38" xmlns:xlink="http://www.w3.org/1999/xlink" xmlns="http://www.w3.org/2000/svg" viewBox="0 0 38 38">
    <path fill="#404041" fill-rule="evenodd" d="M 33.25 34.43 C 33.25 34.43 26.85 36.22 20.18 38 C 19.38 38 18.57 38 17.77 38 C 11.15 36.22 4.75 34.43 4.75 34.43 C 2.24 33.62 0 32.31 0 29.68 C 0 29.68 0 4.75 0 4.75 C 0 2.13 2.13 0 4.75 0 C 4.75 0 11.82 1.97 17.77 3.56 C 18.56 3.56 19.35 3.59 20.13 3.56 C 26.38 1.89 33.25 0 33.25 0 C 35.87 0 38 2.13 38 4.75 C 38 4.75 38 29.68 38 29.68 C 38 32.31 35.69 33.8 33.25 34.43 Z M 4.75 2.37 C 3.44 2.37 2.38 3.44 2.38 4.75 C 2.38 4.75 2.38 29.68 2.38 29.68 C 2.38 31 3.4 31.69 4.75 32.06 C 4.75 32.06 11.33 33.88 17.81 35.62 C 17.81 35.62 17.81 5.93 17.81 5.93 C 17.81 5.93 4.75 2.37 4.75 2.37 Z M 35.63 4.75 C 35.63 3.44 34.56 2.37 33.25 2.37 C 33.25 2.37 20.19 5.93 20.19 5.93 C 20.19 5.93 20.19 35.59 20.19 35.59 C 26.79 33.86 33.25 32.06 33.25 32.06 C 34.52 31.65 35.63 31 35.63 29.68 C 35.63 29.68 35.63 4.75 35.63 4.75 Z" />
</svg>