<?xml version="1.0" encoding="utf-8"?>
<!-- Generator: Avocode 2.6.0 - http://avocode.com -->
<svg height="40" width="32" xmlns:xlink="http://www.w3.org/1999/xlink" xmlns="http://www.w3.org/2000/svg" viewBox="0 0 32 40">
    <path fill="#404041" fill-rule="evenodd" d="M 27.08 40 C 27.08 40 4.92 40 4.92 40 C 2.2 40 0 37.76 0 35 C 0 35 0 5 0 5 C 0 2.24 2.2 0 4.92 0 C 4.92 0 19.69 0 19.69 0 C 21.34 -0.03 22 0.03 22.15 0.03 C 22.15 0.03 22.15 0 22.15 0 C 22.15 0 32 10 32 10 C 32 11.84 32 12.11 32 12.5 C 32 12.5 32 35 32 35 C 32 37.76 29.8 40 27.08 40 Z M 22.15 2.5 C 22.15 5.47 22.15 7.5 22.15 7.5 C 22.15 8.88 23.26 10 24.62 10 C 24.62 10 29.54 10 29.54 10 C 29.54 10 22.15 2.5 22.15 2.5 Z M 29.54 12.5 C 26.67 12.5 24.62 12.5 24.62 12.5 C 21.9 12.5 19.69 10.26 19.69 7.5 C 19.69 7.5 19.63 5.49 19.66 2.5 C 19.66 2.5 4.92 2.5 4.92 2.5 C 3.56 2.5 2.46 3.62 2.46 5 C 2.46 5 2.46 35 2.46 35 C 2.46 36.38 3.56 37.5 4.92 37.5 C 4.92 37.5 27.08 37.5 27.08 37.5 C 28.44 37.5 29.54 36.38 29.54 35 C 29.54 35 29.54 12.5 29.54 12.5 Z M 23.38 30 C 23.38 30 8.62 30 8.62 30 C 7.94 30 7.38 29.44 7.38 28.75 C 7.38 28.06 7.94 27.5 8.62 27.5 C 8.62 27.5 23.38 27.5 23.38 27.5 C 24.06 27.5 24.62 28.06 24.62 28.75 C 24.62 29.44 24.06 30 23.38 30 Z M 23.38 22.5 C 23.38 22.5 8.62 22.5 8.62 22.5 C 7.94 22.5 7.38 21.94 7.38 21.25 C 7.38 20.56 7.94 20 8.62 20 C 8.62 20 23.38 20 23.38 20 C 24.06 20 24.62 20.56 24.62 21.25 C 24.62 21.94 24.06 22.5 23.38 22.5 Z" />
</svg>