<?xml version="1.0" encoding="utf-8"?>
<!-- Generator: Avocode 2.6.0 - http://avocode.com -->
<svg height="40" width="40" xmlns:xlink="http://www.w3.org/1999/xlink" xmlns="http://www.w3.org/2000/svg" viewBox="0 0 40 40">
    <path fill="#404041" fill-rule="evenodd" d="M 38.75 25 C 38.75 25 31.25 25 31.25 25 C 30.56 25 30 24.44 30 23.75 C 30 23.06 30.56 22.5 31.25 22.5 C 31.25 22.5 38.75 22.5 38.75 22.5 C 39.44 22.5 40 23.06 40 23.75 C 40 24.44 39.44 25 38.75 25 Z M 38.75 17.5 C 38.75 17.5 28.75 17.5 28.75 17.5 C 28.06 17.5 27.5 16.94 27.5 16.25 C 27.5 15.56 28.06 15 28.75 15 C 28.75 15 38.75 15 38.75 15 C 39.44 15 40 15.56 40 16.25 C 40 16.94 39.44 17.5 38.75 17.5 Z M 38.75 10 C 38.75 10 28.75 10 28.75 10 C 28.06 10 27.5 9.44 27.5 8.75 C 27.5 8.06 28.06 7.5 28.75 7.5 C 28.75 7.5 38.75 7.5 38.75 7.5 C 39.44 7.5 40 8.06 40 8.75 C 40 9.44 39.44 10 38.75 10 Z M 27.5 27.5 C 27.5 27.5 27.5 32.5 27.5 32.5 C 27.5 36.64 24.14 40 20 40 C 20 40 7.5 40 7.5 40 C 3.36 40 0 36.64 0 32.5 C 0 32.5 0 27.5 0 27.5 C 0 24.22 2.12 21.45 5.06 20.44 C 3.46 18.28 2.5 15.51 2.5 12.5 C 2.5 5.59 7.54 0 13.75 0 C 19.96 0 25 5.59 25 12.5 C 25 15.51 24.04 18.28 22.44 20.44 C 25.38 21.45 27.5 24.22 27.5 27.5 Z M 22.5 12.5 C 22.5 6.97 18.58 2.5 13.75 2.5 C 8.92 2.5 5 6.97 5 12.5 C 5 18.02 8.92 22.5 13.75 22.5 C 18.58 22.5 22.5 18.02 22.5 12.5 Z M 25 28.12 C 25 25.47 22.98 23.25 20.28 22.66 C 18.44 24.13 16.19 25 13.75 25 C 11.31 25 9.06 24.13 7.22 22.66 C 4.52 23.25 2.5 25.47 2.5 28.12 C 2.5 28.12 2.5 31.87 2.5 31.87 C 2.5 34.98 5.25 37.5 8.64 37.5 C 8.64 37.5 18.86 37.5 18.86 37.5 C 22.25 37.5 25 34.98 25 31.87 C 25 31.87 25 28.12 25 28.12 Z M 31.25 30 C 31.25 30 38.75 30 38.75 30 C 39.44 30 40 30.56 40 31.25 C 40 31.94 39.44 32.5 38.75 32.5 C 38.75 32.5 31.25 32.5 31.25 32.5 C 30.56 32.5 30 31.94 30 31.25 C 30 30.56 30.56 30 31.25 30 Z" />
</svg>